<svg xmlns="http://www.w3.org/2000/svg" viewBox="0 0 307.22 65.25"><defs><style>.cls-1{fill:#fff;}.cls-2{fill:#ffd400;}</style></defs><title>Sidedoor_Logo</title><g id="Layer_2" data-name="Layer 2"><g id="Layer_1-2" data-name="Layer 1"><path class="cls-1" d="M81,38.16l1.58-.84a4.86,4.86,0,0,0,4.61,2.79c2.08,0,3.71-1.16,3.71-3.06s-1.13-2.74-3.37-3.74l-1.42-.66c-2.56-1.16-4-2.4-4-4.9s2-4.29,4.71-4.29a5.28,5.28,0,0,1,4.85,2.68l-1.53,1a3.65,3.65,0,0,0-3.32-2A2.53,2.53,0,0,0,84,27.7c0,1.58.85,2.29,2.84,3.21l1.42.66c3,1.32,4.5,2.79,4.5,5.48,0,3-2.34,4.74-5.55,4.74A6.49,6.49,0,0,1,81,38.16"/><rect class="cls-1" x="96.76" y="23.67" width="1.92" height="17.91"/><path class="cls-1" d="M103.66,23.67H108c6,0,9.69,3.53,9.69,9s-3.69,9-9.69,9h-4.35Zm4.21,16.2c5.29,0,7.82-3,7.82-7.24s-2.53-7.24-7.82-7.24h-2.32V39.87Z"/><polygon class="cls-1" points="121.58 23.67 132.48 23.67 132.48 25.36 123.47 25.36 123.47 33.76 131.51 33.76 131.51 35.42 123.47 35.42 123.47 39.89 132.85 39.89 132.85 41.58 121.58 41.58 121.58 23.67"/><path class="cls-1" d="M136.86,23.67h4.35c6,0,9.69,3.53,9.69,9s-3.69,9-9.69,9h-4.35Zm4.21,16.2c5.29,0,7.82-3,7.82-7.24s-2.53-7.24-7.82-7.24h-2.32V39.87Z"/><path class="cls-1" d="M153.75,32.63a9.2,9.2,0,0,1,18.41,0,9.2,9.2,0,0,1-18.41,0m16.43,0a7.23,7.23,0,1,0-14.46,0,7.23,7.23,0,1,0,14.46,0"/><path class="cls-1" d="M175,32.63a9.2,9.2,0,0,1,18.41,0,9.2,9.2,0,0,1-18.41,0m16.43,0a7.23,7.23,0,1,0-14.46,0,7.23,7.23,0,1,0,14.46,0"/><path class="cls-1" d="M208.92,41.58h-2.24l-3.45-4.9a11.24,11.24,0,0,1-1.9.15H199.2v4.74h-1.89V23.67h4c4.9,0,7.43,2.74,7.43,6.61a5.85,5.85,0,0,1-3.74,5.8Zm-7.69-6.4c4.05,0,5.56-2.08,5.56-4.9s-1.53-4.92-5.56-4.92h-2v9.82Z"/><path class="cls-1" d="M217.57,38.16l1.58-.84a4.86,4.86,0,0,0,4.61,2.79c2.08,0,3.71-1.16,3.71-3.06s-1.13-2.74-3.37-3.74l-1.42-.66c-2.56-1.16-4-2.4-4-4.9s2-4.29,4.71-4.29a5.29,5.29,0,0,1,4.85,2.68l-1.53,1a3.65,3.65,0,0,0-3.32-2,2.53,2.53,0,0,0-2.84,2.56c0,1.58.85,2.29,2.84,3.21l1.42.66c3,1.32,4.51,2.79,4.51,5.48,0,3-2.35,4.74-5.56,4.74a6.49,6.49,0,0,1-6.24-3.64"/><polygon class="cls-1" points="236.77 25.36 231.27 25.36 231.27 23.67 244.17 23.67 244.17 25.36 238.67 25.36 238.67 41.58 236.77 41.58 236.77 25.36"/><path class="cls-1" d="M247.34,35.47V23.67h1.9V35.34c0,3.19,1.74,4.77,4.53,4.77s4.53-1.58,4.53-4.77V23.67h1.9v11.8c0,4.19-2.79,6.32-6.43,6.32s-6.42-2.13-6.42-6.32"/><path class="cls-1" d="M264.94,23.67h4.35c6,0,9.69,3.53,9.69,9s-3.69,9-9.69,9h-4.35Zm4.21,16.2c5.29,0,7.82-3,7.82-7.24s-2.53-7.24-7.82-7.24h-2.32V39.87Z"/><rect class="cls-1" x="282.94" y="23.67" width="1.92" height="17.91"/><path class="cls-1" d="M288.81,32.63a9.2,9.2,0,0,1,18.41,0,9.2,9.2,0,0,1-18.41,0m16.43,0a7.23,7.23,0,1,0-14.46,0,7.23,7.23,0,1,0,14.46,0"/><path class="cls-2" d="M0,65.25H65.25V0H0ZM60,10H10V55.28H55.13V20.08H19.85V45.36H45.11V40.27H24.9V25.18H50.07v5H29.85v5.11H50.07V50.36H14.9V15.09H60l0,45.17h-55V5H60Z"/></g></g></svg>